<svg width="23" height="23" viewBox="0 0 23 23" fill="none" xmlns="http://www.w3.org/2000/svg">
    <path d="M16.292 7.666h1.916a1.917 1.917 0 0 1 1.917 1.917v5.75a1.916 1.916 0 0 1-1.917 1.917h-1.916v3.833l-3.834-3.833H8.625a1.912 1.912 0 0 1-1.355-.562l-.562.562v-3.834H4.792A1.917 1.917 0 0 1 2.875 11.5V5.75a1.917 1.917 0 0 1 1.917-1.917h9.583a1.917 1.917 0 0 1 1.917 1.917v1.916z" fill="#222"/>
    <path d="M16.292 7.666h1.916a1.917 1.917 0 0 1 1.917 1.917v5.75a1.916 1.916 0 0 1-1.917 1.917h-1.916v3.833l-3.834-3.833H8.625a1.912 1.912 0 0 1-1.355-.562m0 0 3.272-3.272h3.833a1.917 1.917 0 0 0 1.917-1.916V5.75a1.917 1.917 0 0 0-1.917-1.917H4.792A1.917 1.917 0 0 0 2.875 5.75v5.75a1.917 1.917 0 0 0 1.917 1.916h1.916v3.834l.562-.562z" stroke="#fff" stroke-linecap="round" stroke-linejoin="round"/>
</svg>
