<svg width="23" height="23" viewBox="0 0 23 23" fill="none" xmlns="http://www.w3.org/2000/svg">
    <path d="M4.792 7.666a1.917 1.917 0 1 1 0-3.833h13.416a1.916 1.916 0 1 1 0 3.833v9.584a1.917 1.917 0 0 1-1.916 1.916H6.708a1.917 1.917 0 0 1-1.916-1.916V7.666z" fill="#222"/>
    <path d="M4.792 7.666h13.416m-13.416 0a1.917 1.917 0 1 1 0-3.833h13.416a1.916 1.916 0 1 1 0 3.833m-13.416 0v9.584a1.917 1.917 0 0 0 1.916 1.916h9.584a1.917 1.917 0 0 0 1.916-1.916V7.666M9.583 11.5h3.834" stroke="#fff" stroke-linecap="round" stroke-linejoin="round"/>
</svg>
