<svg width="80" height="22" fill="none" xmlns="http://www.w3.org/2000/svg">
    <path fill-rule="evenodd" clip-rule="evenodd" d="m10.227 15.925-1.821 2.038v3.44H3.84V0h4.566v12.562l5.31-6.09h5.078l-5.771 6.37 6.079 8.561h-5.207l-3.668-5.478zm16.852-9.81c1.522 0 2.89.34 4.104 1.02a7.198 7.198 0 0 1 2.847 2.777c.684 1.189 1.026 2.53 1.026 4.026 0 1.494-.342 2.836-1.026 4.025a7.198 7.198 0 0 1-2.847 2.778c-1.214.68-2.582 1.019-4.104 1.019-1.522 0-2.89-.34-4.104-1.02a7.198 7.198 0 0 1-2.847-2.776c-.684-1.19-1.026-2.531-1.026-4.026 0-1.495.342-2.837 1.026-4.026a7.198 7.198 0 0 1 2.847-2.778c1.214-.679 2.582-1.019 4.104-1.019zm0 3.873c-1.06 0-1.924.374-2.59 1.121-.65.73-.975 1.674-.975 2.829 0 1.155.325 2.106.974 2.853.667.73 1.53 1.096 2.591 1.096 1.06 0 1.915-.365 2.565-1.096.667-.747 1-1.698 1-2.853 0-1.155-.333-2.098-1-2.829-.65-.747-1.505-1.12-2.565-1.12zm13.397 10.753c1.111.68 2.377 1.019 3.796 1.019 1.933 0 3.369-.629 4.31-1.886v1.53h4.565V6.471h-4.566V8c-.94-1.257-2.377-1.886-4.309-1.886-1.42 0-2.684.34-3.796 1.02-1.112.662-1.975 1.588-2.59 2.777-.616 1.189-.924 2.53-.924 4.026 0 1.494.308 2.836.923 4.025.616 1.19 1.48 2.115 2.59 2.778zm7.182-3.95c-.667.73-1.556 1.096-2.668 1.096-1.077 0-1.94-.365-2.59-1.096-.65-.747-.975-1.698-.975-2.853 0-1.155.325-2.098.975-2.829.65-.747 1.513-1.12 2.59-1.12 1.112 0 2.001.373 2.668 1.12.667.73 1 1.674 1 2.829 0 1.155-.333 2.106-1 2.853zm13.501 4.612h-4.566v-3.27h4.566v3.27zm0-5.83h-4.566V0h4.566v15.573zm6.17 5.168c1.111.68 2.377 1.019 3.796 1.019 1.932 0 3.369-.629 4.31-1.886v1.53H80V6.471h-4.566V8c-.94-1.257-2.377-1.886-4.31-1.886-1.418 0-2.684.34-3.795 1.02-1.112.662-1.975 1.588-2.591 2.777-.616 1.189-.923 2.53-.923 4.026 0 1.494.307 2.836.923 4.025.616 1.19 1.48 2.115 2.59 2.778zm7.182-3.95c-.667.73-1.556 1.096-2.668 1.096-1.077 0-1.94-.365-2.59-1.096-.65-.747-.975-1.698-.975-2.853 0-1.155.325-2.098.974-2.829.65-.747 1.514-1.12 2.591-1.12 1.112 0 2 .373 2.668 1.12.667.73 1 1.674 1 2.829 0 1.155-.333 2.106-1 2.853z" fill="#FFD25D"/>
    <path fill-rule="evenodd" clip-rule="evenodd" d="m6.387 15.925-1.821 2.038v3.44H0V0h4.566v12.562l5.31-6.09h5.078l-5.771 6.37 6.079 8.561h-5.207l-3.668-5.478zm16.852-9.81c1.522 0 2.89.34 4.104 1.02a7.2 7.2 0 0 1 2.848 2.777c.684 1.189 1.026 2.53 1.026 4.026 0 1.494-.342 2.836-1.026 4.025a7.199 7.199 0 0 1-2.848 2.778c-1.214.68-2.582 1.019-4.104 1.019-1.522 0-2.89-.34-4.104-1.02a7.198 7.198 0 0 1-2.847-2.776c-.684-1.19-1.026-2.531-1.026-4.026 0-1.495.342-2.837 1.026-4.026a7.198 7.198 0 0 1 2.847-2.778c1.214-.679 2.582-1.019 4.104-1.019zm0 3.873c-1.06 0-1.924.374-2.59 1.121-.65.73-.975 1.674-.975 2.829 0 1.155.325 2.106.974 2.853.667.73 1.531 1.096 2.591 1.096 1.06 0 1.915-.365 2.565-1.096.667-.747 1-1.698 1-2.853 0-1.155-.333-2.098-1-2.829-.65-.747-1.505-1.12-2.565-1.12zm13.397 10.753c1.112.68 2.377 1.019 3.796 1.019 1.933 0 3.37-.629 4.31-1.886v1.53h4.565V6.471h-4.565V8c-.94-1.257-2.377-1.886-4.31-1.886-1.419 0-2.684.34-3.796 1.02-1.111.662-1.975 1.588-2.59 2.777-.616 1.189-.924 2.53-.924 4.026 0 1.494.308 2.836.923 4.025.616 1.19 1.48 2.115 2.591 2.778zm7.182-3.95c-.667.73-1.556 1.096-2.667 1.096-1.078 0-1.941-.365-2.591-1.096-.65-.747-.975-1.698-.975-2.853 0-1.155.325-2.098.975-2.829.65-.747 1.513-1.12 2.59-1.12 1.112 0 2.001.373 2.668 1.12.667.73 1 1.674 1 2.829 0 1.155-.333 2.106-1 2.853zm13.501 4.612h-4.566v-3.27h4.566v3.27zm0-5.83h-4.566V0h4.566v15.573zm6.17 5.168c1.111.68 2.377 1.019 3.796 1.019 1.932 0 3.369-.629 4.31-1.886v1.53h4.565V6.471h-4.566V8c-.94-1.257-2.377-1.886-4.309-1.886-1.42 0-2.685.34-3.796 1.02-1.112.662-1.975 1.588-2.59 2.777-.617 1.189-.924 2.53-.924 4.026 0 1.494.307 2.836.923 4.025.616 1.19 1.48 2.115 2.59 2.778zm7.182-3.95c-.667.73-1.556 1.096-2.668 1.096-1.077 0-1.94-.365-2.59-1.096-.65-.747-.975-1.698-.975-2.853 0-1.155.325-2.098.975-2.829.65-.747 1.513-1.12 2.59-1.12 1.112 0 2.001.373 2.668 1.12.667.73 1 1.674 1 2.829 0 1.155-.333 2.106-1 2.853z" fill="#222"/>
</svg>
