<svg width="23" height="24" viewBox="0 0 23 24" fill="none" xmlns="http://www.w3.org/2000/svg">
    <path d="M13.105 4.4c-.408-1.707-2.802-1.707-3.21 0-.265 1.102-1.51 1.625-2.465 1.034-1.48-.913-3.172.803-2.271 2.302a1.69 1.69 0 0 1-.337 2.145 1.644 1.644 0 0 1-.685.355c-1.683.414-1.683 2.84 0 3.254.253.063.487.184.685.356a1.695 1.695 0 0 1 .336 2.143c-.901 1.5.792 3.215 2.271 2.302a1.635 1.635 0 0 1 2.115.341c.17.2.29.438.35.695.409 1.706 2.803 1.706 3.211 0 .062-.256.182-.494.35-.694a1.633 1.633 0 0 1 2.114-.34c1.48.912 3.173-.804 2.272-2.303a1.69 1.69 0 0 1 .337-2.145c.197-.171.432-.293.685-.355 1.683-.414 1.683-2.84 0-3.254a1.643 1.643 0 0 1-.685-.356 1.696 1.696 0 0 1-.336-2.143c.901-1.5-.792-3.215-2.271-2.302a1.637 1.637 0 0 1-2.115-.341c-.17-.2-.29-.438-.35-.695z" fill="#222" stroke="#222" stroke-linecap="round" stroke-linejoin="round"/>
    <path d="M13.533 13.924c.54-.547.842-1.288.842-2.06 0-.774-.303-1.515-.842-2.062A2.855 2.855 0 0 0 11.5 8.95c-.762 0-1.494.307-2.033.853a2.935 2.935 0 0 0-.842 2.061c0 .773.303 1.514.842 2.06.54.547 1.27.854 2.033.854.762 0 1.494-.307 2.033-.853z" fill="#fff" stroke="#222" stroke-linecap="round" stroke-linejoin="round"/>
</svg>
