<svg width="32" height="32" viewBox="0 0 32 32" fill="none" xmlns="http://www.w3.org/2000/svg">
    <path d="M18.233 5.756c-.568-2.341-3.898-2.341-4.466 0a2.298 2.298 0 0 1-3.43 1.42c-2.058-1.253-4.413 1.103-3.16 3.16a2.298 2.298 0 0 1-1.421 3.43c-2.341.569-2.341 3.9 0 4.467a2.3 2.3 0 0 1 1.42 3.43c-1.253 2.058 1.103 4.413 3.16 3.16a2.299 2.299 0 0 1 3.43 1.421c.569 2.341 3.9 2.341 4.467 0a2.3 2.3 0 0 1 3.43-1.42c2.058 1.253 4.413-1.103 3.16-3.16a2.299 2.299 0 0 1 1.421-3.43c2.341-.569 2.341-3.9 0-4.467a2.3 2.3 0 0 1-1.42-3.43c1.253-2.058-1.103-4.413-3.16-3.16a2.298 2.298 0 0 1-3.43-1.421z" stroke="#999" stroke-linecap="round" stroke-linejoin="round"/>
    <path d="M18.828 18.828a4 4 0 1 0-5.656-5.656 4 4 0 0 0 5.656 5.656z" fill="#fff" stroke="#999" stroke-linecap="round" stroke-linejoin="round"/>
</svg>
